<svg width="500" height="500" viewBox="0 0 500 500" fill="none" xmlns="http://www.w3.org/2000/svg">
<rect x="7.8125" y="7.8125" width="484.375" height="484.375" rx="117.188" fill="#0F2850"/>
<rect x="7.8125" y="7.8125" width="484.375" height="484.375" rx="117.188" stroke="#144483" stroke-width="15.625"/>
<path d="M124.597 329.545V170.455H228.068V194.613H153.417V237.804H222.708V261.963H153.417V305.387H228.69V329.545H124.597Z" fill="#0885FE"/>
<path d="M259.658 329.545V170.455H319.317C331.539 170.455 341.793 172.733 350.079 177.291C358.417 181.848 364.709 188.114 368.956 196.089C373.254 204.013 375.403 213.024 375.403 223.122C375.403 233.324 373.254 242.387 368.956 250.311C364.657 258.234 358.313 264.475 349.924 269.032C341.534 273.537 331.203 275.79 318.929 275.79H279.389V252.097H315.045C322.192 252.097 328.043 250.855 332.601 248.369C337.158 245.883 340.524 242.465 342.699 238.115C344.926 233.765 346.04 228.767 346.04 223.122C346.04 217.478 344.926 212.506 342.699 208.208C340.524 203.909 337.132 200.569 332.523 198.187C327.966 195.753 322.088 194.536 314.889 194.536H288.478V329.545H259.658Z" fill="#0885FE"/>
</svg>
